<svg xmlns="http://www.w3.org/2000/svg" width="653.496" height="170.12" viewBox="0 0 653.496 170.12">
  <path d="M598.442 169.62c-1.124-5.768-9-9.167-9-9.167-1.732-.822-1.642-1.824-1.642-1.824 1.1-1.823 6.286 0 6.286 0a10.122 10.122 0 0 1 8.661-2.642 512.529 512.529 0 0 0 9.563-99.959h-1.732a2.118 2.118 0 0 1-2.1-2.1V52.47a2.118 2.118 0 0 1 2.1-2.094h3.91V33.903h-1.45a2.118 2.118 0 0 1-2.094-2.1v-.365a2.118 2.118 0 0 1 2.094-2.1h3.735V16.32h-1.081v-3.911a3.958 3.958 0 0 1 3.279-3.008 2.508 2.508 0 0 1 1.178-1.458 23.939 23.939 0 0 1-.089-2.553c0-1.279.089-2.55.182-3.552 0-.455.092-.911.092-1.181a1.1 1.1 0 0 1 .093-.455 1.589 1.589 0 0 0 .092.455c0 .279.089.729.089 1.181.1 1 .185 2.28.185 3.552a22.188 22.188 0 0 1-.092 2.553 2.527 2.527 0 0 1 1.182 1.458 3.851 3.851 0 0 1 3.276 3.008v3.911h-1.09v13.028h3.738a2.121 2.121 0 0 1 2.094 2.1v.365a2.121 2.121 0 0 1-2.094 2.1h-1.459v16.4h3.281a2.121 2.121 0 0 1 2.094 2.1v1.458a2.12 2.12 0 0 1-2.094 2.094h-.64c0 6.561.185 71.164 8.84 99.775a11.565 11.565 0 0 1 9.569 2.916c2.916-.729 4.374-1.279 5.377-.366 1.092.911-2.553 2.735-2.553 2.735a12.408 12.408 0 0 0-7.745 8.595zm11.311-11.865c.559-1.181 3.737-2.552 3.737-2.552l.455-4.374h-6.832a18.038 18.038 0 0 1-1.639 5.194 2.123 2.123 0 0 1 .425-.041c1.695 0 3.855 1.773 3.855 1.773zm17.227-2.572s3.1 1.366 3.737 2.553c0 0 2.551-2.1 4.282-1.733a13.231 13.231 0 0 1-1.64-5.195h-6.835zm-2.648-.813a7.46 7.46 0 0 1-.36-3.552h-6.745a10.213 10.213 0 0 1-.728 3.552 11.471 11.471 0 0 1 7.834 0zm-16.305-9.828h6.653l.732-18.495h-4.65a100.137 100.137 0 0 1-2.735 18.496zm9.655 0h5.558l-.911-18.494h-3.826zm8.114-.019h6.561a95.441 95.441 0 0 1-2.642-18.495h-4.648zm-14.489-23.578h4.284c.279-.729.36-16.584.36-16.584h-3.276c-.279 8.289-1.368 16.581-1.368 16.581zm7.471-16.682-.279 16.584h3.826l-.349-16.607zm6.108 16.565h4.28c-.023-.085-1.094-8.38-1.365-16.585h-3.279s.093 15.853.364 16.577zm-5.924-18.936h2.915l-.181-19.408h-2.548zm5.555 0h3.1l-.838-19.131h-2.265zm-10.929-19.151-.822 19.135h3.1v-19.14zm-.093-1.823v.031h2.369V56.307h-1.916c.283 7.564-.452 24.604-.452 24.604zm11.013.022h2.368c.093 0-.729-17.037-.455-24.6h-1.912zm-5.366 0h2.64v-24.6h-2.634zm3.815-31.164h1.729V34.187h-1.729zm-3.446-.011h1.737V34.176h-1.732zm-3.463 0h1.737V34.176h-1.732zm5.01-20.947h1.458V16.142h-1.458zm-2.823 0h1.455V16.142h-1.455zM528.066 169.62v-1.441h-6.164v1.441h-69c-.623-4.441-1.38-8.821-2.215-13.2a97.706 97.706 0 0 0-3.6-13.484 17.118 17.118 0 0 0-2.181-4.063c0 .184-.1.371-.1.558a105.756 105.756 0 0 0-1.612 10.99c0 .093-.095.185-.095.28-.19 2.218-.279 4.435-.38 6.557 0 1.4-.1 2.771-.1 4.156l.185 8.205h-69.79v-.181c0-1.118-.1-3.6-.1-4.8 0-.185-.094-.279 0-.559v-.74c0-.279-.094-1.846-.094-2.033-.19-4.341-.38-8.683-.855-12.931a64.765 64.765 0 0 0-1.9-10.253c-.094-.185-.094-.461-.19-.741a7.242 7.242 0 0 0-1.045 1.478 63.093 63.093 0 0 0-6.069 13.948 121.5 121.5 0 0 0-3.9 16.816h-25.669c.83-4.625 1.738-9.252 2.561-13.875.854-4.527 1.611-9.051 2.466-13.579.76-4.34 1.611-8.59 2.372-12.931.76-3.972 1.516-8.035 2.181-12.01a.894.894 0 0 1 .76-.838c1.9-.74 3.7-1.478 5.586-2.126 1.706-.644 3.413-1.4 5.215-2.033.558-.279.947 0 1.421.185.76.185 1.516.461 2.276.645a8.306 8.306 0 0 1 2.559.838c.38.092.855.279 1.229.369.279 0 .558-.093.759.184.191 0 .475.093.665.093a7.762 7.762 0 0 1 2.086.645c.475-.093.855-.28.76-.925a34.787 34.787 0 0 1 1.72-15.245 39.406 39.406 0 0 1 43.81-25.771 38.4 38.4 0 0 1 20.389 9.7 36.625 36.625 0 0 1 12.422 30.571c0 .559-.279 1.3 0 1.754s1.044.645 1.611.924a1.77 1.77 0 0 0 1.516.28c2.182-.462 4.363-.838 6.542-1.2a2.806 2.806 0 0 1 1.519-.279 1.6 1.6 0 0 1 1.139 0c2.846 1.4 5.689 2.678 8.535 3.972a1.186 1.186 0 0 1 .665.838l1.422 8.591c.947 5.541 1.8 11.085 2.75 16.719.666 4.1 1.389 8.207 2.079 12.355h14.253v4.4h1.6v1.96h2.664v5.171h2.25v-11.97h7.586v-12.473l4.747-.924v-17.085s3.983.369 3.793-5.818 0-9.885 0-9.885h22.388v14.51h4.552v-48.6a5.692 5.692 0 0 1 5.586-4.711 47.561 47.561 0 0 1 7.3 0l.76-14.6s12.8-1.477 12.8 3.326V169.62zm-16.88-6.021h6.162v-6h-6.164zm10.716-.028h6.164v-6h-6.164zm-10.716-10.586h6.162v-6.119h-6.164zm10.716-.028h6.164v-6.091h-6.164zm-10.716-10.585h6.162v-6.119h-6.164zm10.716-.028h6.164v-6.091h-6.164zm29.874-8.493h6.164v-6h-6.164zm-40.59-2.092h6.162v-6.119h-6.164zm10.716-.028h6.164v-6.091h-6.164zm19.157-8.462h6.164v-6.006h-6.164zm10.716-.031h6.164v-6h-6.164zm-40.59-2.008h6.163v-6h-6.164zm10.716-.028h6.164v-6h-6.164zm-160.276-6.293c-.279-.092-.474-.092-.76-.184.283.095.477.095.761.184zm0 0a1.3 1.3 0 0 0 .1-.322zm78.725-1.345a18.647 18.647 0 0 0 1.9.838v-3.05a.424.424 0 0 0-.38-.461c-.38-.093-.559-.28-.19-.645a3.253 3.253 0 0 0-.38-3.324c-.279-.185-.474-.185-.664.093a2.427 2.427 0 0 0-.28 1.117 6.654 6.654 0 0 1-.094 1.94 11.009 11.009 0 0 0-.1 3.047v-.016c-.001.184-.001.368.186.461zm-69.313-8.125a3.234 3.234 0 0 0-.558 3.6c.474.838.38 1.017-.475 1.2-.279.092-.279.279-.279.461v2.586c0 .369.19.461.474.369.665-.279 1.422-.461 2.182-.74a.507.507 0 0 0 .344-.238.477.477 0 0 0 .036-.408 8.123 8.123 0 0 0 .086-1.564h-.016v-1.478c0-.279.095-.461-.28-.644-.279-.093-.095-.462-.095-.741a3.578 3.578 0 0 0-.19-2.218c-.157-.36-.374-.548-.619-.548a.848.848 0 0 0-.608.362zm66.378-.829c-.475.092-.665.461-.76.924a3.8 3.8 0 0 1-.1.461 47.688 47.688 0 0 1-.193 5.171c.094.368.094.558.474.739.559.28 1.14.461 1.707.741.38.184.474.092.474-.28v-1.57c-.19-.558.279-1.3-.279-1.938-.1-.093.094-.28.19-.461a2.907 2.907 0 0 0-.475-3.326 1.111 1.111 0 0 0-1.044-.461zm103.643 8.046h6.164v-6h-6.164zm10.718-.036h6.164v-6h-6.164zm-176.2-9.689a3.065 3.065 0 0 0-1.517 2.678 2.536 2.536 0 0 0 .562 1.676c.086.371.274.555-.1.649-.259.1-.173.365-.173.552v3.139c0 .369.095.645.558.461.855-.279 1.612-.558 2.467-.838a.62.62 0 0 0 .474-.645v-3.326c0-.092 0-.368-.095-.368-.855-.369-.28-.924-.19-1.3a3.3 3.3 0 0 0-.19-2.126 1.2 1.2 0 0 0-.766-.695 1.218 1.218 0 0 0-.365-.056 1.26 1.26 0 0 0-.669.204zm55.395 3.418-.005.005v2.31a.427.427 0 0 0 .279.461c1.139.558 2.276 1.016 3.416 1.57.381.184.475.092.475-.28v-1.57c-.094-.558.279-1.3-.279-1.849a.333.333 0 0 1 .095-.279 3.507 3.507 0 0 0-.947-3.511 1.553 1.553 0 0 0-1.611-.645c-.665.184-.855.838-.947 1.478v1.2c0 .369.474.924-.475.74-.105.001-.005.281-.005.376zm-49.968-4.913a4.006 4.006 0 0 0-1.333 4.064c.1.184.187.461-.095.558-.19.093-.1.28-.1.461v3.419c-.187.558-.089.651.383.466l-.008.014c1.333-.462 2.751-.925 4.075-1.4.383-.092.478-.279.478-.645v-1.477h.092v-1.3c0-.369.1-.741-.559-.559-.38.092-.279-.369-.19-.559a4.387 4.387 0 0 0 0-2.218 1.546 1.546 0 0 0-1.1-1.284 1.572 1.572 0 0 0-.467-.07 1.6 1.6 0 0 0-1.18.536zm160.061.6h6.164v-6h-6.164zm10.716-.031h6.164v-6.006h-6.164zm-10.716-10.583h6.164v-6h-6.164zm10.716-.031h6.164v-6h-6.164zm-10.716-10.5h6.164v-6h-6.164zm10.716-.031h6.164v-6h-6.164zm-274.084 88.76v-31.429a2.951 2.951 0 0 1-.854 1.118 2.388 2.388 0 0 0-.855 2.218v28.094h-15.649v-27.734a2.548 2.548 0 0 0-1.044-2.4c-1.229-.838-1.229-1.941-.947-3.326h2.846v-7.111c-.855-.092-1.517-.092-2.182-.185v-1.75c2.182-.185 2.182-.185 2.182-2.218v-1.4a6.428 6.428 0 0 1 3.6-5.913 24.26 24.26 0 0 0 2.466-1.846.943.943 0 0 1 1.517-.092 13.233 13.233 0 0 0 2.559 1.938 7.266 7.266 0 0 1 3.6 7.206c-.094 2.033 0 2.033 1.992 2.309.095 0 .095.093.19.185v1.676a9.1 9.1 0 0 0-1.612 0c-.279.092-.76.369-.76.645-.1 2.122 0 4.34 0 6.557h2.846v-8.312h15.92v17.151h.559v-48.93h31.619v41.673h1.4v7.259h5.759v24.617zm-14.316-38.185v3.609c0 .74.279 1.017 1.044 1.017.519-.014.945-.013 1.292-.013 1.937 0 1.459.009 1.459-2.574v-1.114a23.4 23.4 0 0 0 0-2.587c-.094-.369-.558-.924-.855-.924-.777-.021-1.352-.051-1.777-.051-1.448 0-1.163.354-1.163 2.637zm5.79.012v4.153a.694.694 0 0 0 .094.372h3.7v-6.466c0-.279-.475-.461-.665-.645h-.279a23.893 23.893 0 0 0-1.415-.068c-1.436 0-1.436.45-1.436 2.654zm30.725.162h.614v-2.789h5.548v-3.217h-6.164zm10.716-2.788h6.164v-3.255h-6.164zm-10.716-7.825h6.161v-6.006h-6.164zm10.716-.04h6.164v-6h-6.164zm-10.716-10.574h6.161v-5.913h-6.164zm10.716-.039h6.164v-5.913h-6.164zM156.779 169.62v-4.9h1.34a6.024 6.024 0 0 0-3.332-5.449 74.341 74.341 0 0 0-9.578-4.432 11.962 11.962 0 0 0-9.294-.925 66.062 66.062 0 0 0-12.328 5.358 6.267 6.267 0 0 0-3.223 5.912q.06 2.221.085 4.441h-7.942v-37.16h53.108v10.72l1.418.516v-23.706h.76v-3.234c-.556-1.676.094-3.05 2.276-4.62a3.3 3.3 0 0 1 2.371 3.79 2.492 2.492 0 0 1-.094.838v2.678c.094.369.38.559.947.559a17.492 17.492 0 0 0-.19 2.126v17.488l9.471 3.451v6.268l8.165 2.966c-.021-2.389-.04-4.7.021-7.006a21.455 21.455 0 0 1 8.3-16.95 40.244 40.244 0 0 1 5.1-3.276c1.092-.729 4.279-3.282 5.376-4.19a5.173 5.173 0 0 0 1.911-4.1c.092-.636 0-1.094-.726-1.365-.363-.093-.562-.559-.821-.822l.821-.821c.364-.364 1-.637 1-1 .366-2.642.556-5.285.822-8.019.092-.821.276-1.55.365-2.368.455 3.1.821 6.1 1 9.11.093 1.1.185 2.006 1.461 2.28.276.092.455.365.911.729a4.268 4.268 0 0 1-.911.636c-1.094.182-.821.911-.913 1.732a5.185 5.185 0 0 0 1.73 3.745 13.2 13.2 0 0 0 5.009 4.189 21.4 21.4 0 0 1 13.671 17.768c.453 3.827.28 7.837.364 11.756.365 1.279 0 1.64-1.182 1.64h-43.017v1.543h67.139v12.104zm13.659-53.049v3.234h.38c.38-.092.855-.184 1.139-.279v-2.863a6.937 6.937 0 0 0-1.173-.1 7.69 7.69 0 0 0-.345.008zm-1.522-.185a.716.716 0 0 0-.38.185v3.234h1.519v-3.418a4.534 4.534 0 0 0-.569-.036 4.582 4.582 0 0 0-.569.036zm-.38 3.418h-.088zM20.131 169.62v-11.845c.474 0 .854-.092 1.229-.092h49.6a2.572 2.572 0 0 1 .855 0h7.205c.19 0 .38-.092.665-.092 6.069.092 12.138 0 18.113.092h5.879c1.229 0 1.611-.279 1.611-1.57-.094-11.362 0-22.723 0-34.074a19.484 19.484 0 0 0-.279-1.939h1.045v-3.418h-.1c-.279-2.033.19-3.7 2.276-4.34 2.467.924 2.467 2.862 2.276 4.985v2.4a3.294 3.294 0 0 0 .855.558 22.664 22.664 0 0 0-.19 2.494v46.841zm88.854-49.815a2.121 2.121 0 0 0 1.137-.184v-3.139a1.507 1.507 0 0 0-.76-.185h-.76v3.511zm-2.372 0h1.514v-3.418h-1.517zM2.388 169.62v-27.733a2.641 2.641 0 0 0-.947-2.494c-1.229-.838-1.045-1.939-.855-3.235h3.036v-4.985c0-2.123 0-2.123-2.181-2.218-.1 0-.1-.093-.19-.185v-1.572c2.276-.369 2.276-.369 2.276-2.678v-1.118a6.286 6.286 0 0 1 2.656-5.172c1.332-1.016 2.656-1.94 4.078-2.955h.279c.762.645 1.332 1.57 2.182 1.939a6.876 6.876 0 0 1 4.469 7.3c-.095 2.309 0 2.309 2.182 2.77v1.754a9.637 9.637 0 0 0-1.612 0 .838.838 0 0 0-.664.558c-.093 2.219 0 4.433 0 6.743h2.938a2.817 2.817 0 0 1-1.044 3.418 2.446 2.446 0 0 0-.943 2.213v27.65zm9.6-40.852c-.279 0-.558.559-.558.924v5.357l-.022.089c0 .28.475.838.76.838.947.093 1.9 0 3.036 0v-6.649a.7.7 0 0 0-.558-.559 12.936 12.936 0 0 0-2.657 0zm-5.7 0c-.28 0-.665.461-.665.74v6.374h3.7v-7.114c-.7 0-1.35-.041-2.017-.041a9.327 9.327 0 0 0-1.025.039zm37.52 27.118c-.911 0-1.1-.363-1.1-1.182v-9.384a21.647 21.647 0 0 1 7.293-16.219 19.942 19.942 0 0 1 6.742-4.189 16.581 16.581 0 0 0 5.827-5.114c.728-.822.558-1.732.91-2.552.455-1.28-.282-1.732-1.182-2.187-.181-.093-.279-.28-.454-.559a3.081 3.081 0 0 1 1-.636c.913-.182 1.094-.729 1.181-1.64.185-2.916.562-5.832.824-8.748a1.869 1.869 0 0 1 .453-.821c.365 3.279.732 6.287.913 9.3.093 1 .182 1.821 1.28 2.005.363.092.558.455.91.729-.365.365-.558.729-.821.729-1.1.182-.911.821-.911 1.639a5.865 5.865 0 0 0 1.822 3.91 14.307 14.307 0 0 0 4.918 4.1 21.507 21.507 0 0 1 13.851 18.316c.363 3.737.092 7.653.181 11.481l.012.022c0 1-.455 1-1.28 1zm69.508-25.339v-9.027a2.683 2.683 0 0 1 .184-.822c.366-.91.455-1.639-.91-1.821.178-.729-.366-1.55.726-1.913.184-.092.184-.558.184-.91a9.037 9.037 0 0 1 .179-1.64 26.688 26.688 0 0 1 12.568-12.939 20.724 20.724 0 0 0 8.474-6.287 7.361 7.361 0 0 0 2.1-5.01c0-.729.184-1.28-.822-1.64-.455-.181-.726-.729-1.094-1.181a6.142 6.142 0 0 1 1.279-1c.559-.28 1.1-.366 1.184-1.182.089-1.458.276-2.916.455-4.469.276-2.824.555-5.74.821-8.566h.276c.455 4.19.913 8.379 1.369 12.666.092.822.178 1.279 1.089 1.551.559.181.911.728 1.366 1-.455.363-.819.821-1.28 1.181a6.841 6.841 0 0 0-.726 1c-1.005 2.279 2.461 5.739 2.64 6.014a14.229 14.229 0 0 0 5.195 4.373 27.992 27.992 0 0 1 13.668 11.209c.911 1.458 2.28 2.916 1.822 5.01 0 .182.092.559.185.559 1.355.634.826 1.541 1 2.268-1.263.184-1.262.911-.891 1.821a3.071 3.071 0 0 1 .178 1.279v8.474zm51.924-11.574h.016l-.014.014z" stroke="none" fill="#d2ebdf"/>
</svg>

